# xmcd
# 
# Track frame offsets:
#     150
#     12857
#     27702
#     37252
#     48460
#     59815
#     69442
#     79945
#     92210
#     103205
#     118147
#     129467
#     141372
#     155737
#     165777
#     175872
#     188342
#     200475
# 
# Disc length: 2836
# 
# Revision: 2
# Processed by: cddbd v1.5.2PL0 Copyright (c) Steve Scherf et al.
# Submitted via: FoxEncoder v1.4.0
# 
DISCID=060b1212
DTITLE=Various Artist - Best Of Country and Western Vol 1
DYEAR=0
DGENRE=Country
TTITLE0=Johnny Cash - Folsom Prison Blues
TTITLE1=Frankie Lane - Sixteen Tons
TTITLE2=Donna Fargo - Sticks And Stones
TTITLE3=Roger Miller - King Of The Road
TTITLE4=George Jones - I Can't Change Overnight
TTITLE5=Jerry Lee Lewis - Walk Right In
TTITLE6=Carl Perkins - What Am I Living For
TTITLE7=Ray Price - Rain And Tears
TTITLE8=Don Davis Jr. - Minnisota Bay
TTITLE9=Willie Nelson - Face Of A Fighter
TTITLE10=Don Williams and The Pozo Seco Singers - Follow Me Back To Louisville
TTITLE11=Conway Twitty - You Made Me What I Am
TTITLE12=Billy Joe Spears - Sunshine
TTITLE13=Faron Young - Hello Walls
TTITLE14=Buddy Knox - Devil Woman
TTITLE15=Johnny Paycheck - Georgia In A Jug
TTITLE16=Dolly Parton - Two Little Orphans
TTITLE17=Bobby Helms - Fraulein
EXTD=
EXTT0=
EXTT1=
EXTT2=
EXTT3=
EXTT4=
EXTT5=
EXTT6=
EXTT7=
EXTT8=
EXTT9=
EXTT10=
EXTT11=
EXTT12=
EXTT13=
EXTT14=
EXTT15=
EXTT16=
EXTT17=
PLAYORDER=
